{"asset":{"version":"2.0","generator":"Unity 2021.3.45f1 glTFast 6.10.2"},"nodes":[{"name":"Main Camera","children":[13],"translation":[0,0,-10]},{"name":"backdrop"},{"name":"Loading","translation":[0,-399,0]},{"name":"Background","translation":[-43.27661,-9.918213E-05,0]},{"name":"Fill","translation":[412.9545,0,0]},{"name":"Fill Area","children":[4],"translation":[-5,0,0]},{"name":"Slider","children":[3,5],"translation":[82,-375,0]},{"name":"LoadingText","translation":[392.9404,-323.208,0],"scale":[1.1281,1.1281,1.1281]},{"name":"ProgressText","translation":[-397.899536,-323.208069,0],"scale":[1.1281,1.1281,1.1281]},{"name":"Canvas","children":[1,2,6,7,8],"translation":[-960,540,0]},{"name":"EventSystem"},{"name":"GameObject","translation":[-1072,386,0]},{"name":"Cube","mesh":0,"translation":[191.367,-127.752,4.53973961],"rotation":[0.0372857973,-0.753860652,-0.0325289741,0.6551684],"scale":[0.9999999,0.99999994,0.9999999]},{"name":"Main Camera_Orientation","rotation":[0,-1,0,-4.371139E-08],"camera":0}],"buffers":[{"uri":"Square.bin","byteLength":1416}],"bufferViews":[{"buffer":0,"byteLength":72,"target":34963},{"buffer":0,"byteLength":1344,"byteOffset":72,"byteStride":56,"target":34962}],"accessors":[{"bufferView":1,"componentType":5126,"count":24,"type":"VEC3","max":[0.5,0.5,0.5],"min":[-0.5,-0.5,-0.5]},{"bufferView":1,"componentType":5126,"count":24,"type":"VEC3","byteOffset":12},{"bufferView":1,"componentType":5126,"count":24,"type":"VEC4","byteOffset":24},{"bufferView":1,"componentType":5126,"count":24,"type":"VEC2","byteOffset":40},{"bufferView":1,"componentType":5126,"count":24,"type":"VEC2","byteOffset":48},{"bufferView":0,"componentType":5123,"count":36,"type":"SCALAR"}],"cameras":[{"type":"orthographic","orthographic":{"xmag":6.666667,"ymag":5,"zfar":1000,"znear":0.3}}],"materials":[{"name":"Default-Material","pbrMetallicRoughness":{"metallicFactor":0,"roughnessFactor":0.5}}],"meshes":[{"name":"Cube","primitives":[{"attributes":{"POSITION":0,"NORMAL":1,"TANGENT":2,"TEXCOORD_0":3,"TEXCOORD_1":4},"indices":5,"material":0}]}],"scene":0,"scenes":[{"name":"Loading","nodes":[0,9,10,11,12]}]}